<svg width="783" height="709" viewBox="0 0 783 709" fill="none" xmlns="http://www.w3.org/2000/svg">
<path d="M28.0092 46.0348C27.9131 45.7332 27.7839 45.4631 27.6214 45.2244C27.4624 44.9825 27.2718 44.777 27.0497 44.608C26.8277 44.4356 26.5741 44.3047 26.2891 44.2152C26.0073 44.1257 25.6974 44.081 25.3594 44.081C24.786 44.081 24.2689 44.2285 23.8082 44.5234C23.3475 44.8184 22.983 45.2509 22.7145 45.821C22.4493 46.3878 22.3168 47.0821 22.3168 47.9041C22.3168 48.7294 22.451 49.4271 22.7195 49.9972C22.9879 50.5672 23.3558 50.9998 23.8232 51.2947C24.2905 51.5897 24.8224 51.7372 25.419 51.7372C25.9725 51.7372 26.4548 51.6245 26.8658 51.3991C27.2801 51.1738 27.5999 50.8556 27.8253 50.4446C28.054 50.0303 28.1683 49.5431 28.1683 48.983L28.5661 49.0575H25.6527V47.7898H29.6548V48.9482C29.6548 49.8033 29.4725 50.5457 29.108 51.1754C28.7467 51.8018 28.2462 52.2857 27.6065 52.6271C26.9702 52.9685 26.241 53.1392 25.419 53.1392C24.4976 53.1392 23.6889 52.9271 22.9929 52.5028C22.3002 52.0786 21.7599 51.477 21.3722 50.6982C20.9844 49.916 20.7905 48.9879 20.7905 47.9141C20.7905 47.102 20.9032 46.3729 21.1286 45.7266C21.3539 45.0803 21.6705 44.5317 22.0781 44.081C22.4891 43.6269 22.9714 43.2805 23.5249 43.0419C24.0817 42.8 24.6899 42.679 25.3494 42.679C25.8996 42.679 26.4117 42.7602 26.8857 42.9226C27.3629 43.085 27.7872 43.3153 28.1584 43.6136C28.5329 43.9119 28.8428 44.2666 29.0881 44.6776C29.3333 45.0852 29.4991 45.5376 29.5852 46.0348H28.0092ZM36.323 49.8331V45.3636H37.8145V53H36.3528V51.6776H36.2733C36.0976 52.0852 35.8159 52.425 35.4281 52.6967C35.0436 52.9652 34.5647 53.0994 33.9913 53.0994C33.5008 53.0994 33.0666 52.9917 32.6887 52.7763C32.3142 52.5575 32.0192 52.2344 31.8038 51.8068C31.5917 51.3793 31.4856 50.8506 31.4856 50.2209V45.3636H32.9721V50.0419C32.9721 50.5623 33.1163 50.9766 33.4047 51.2848C33.693 51.593 34.0675 51.7472 34.5282 51.7472C34.8066 51.7472 35.0834 51.6776 35.3585 51.5384C35.6369 51.3991 35.8672 51.1887 36.0495 50.907C36.2351 50.6252 36.3263 50.2673 36.323 49.8331ZM39.8118 53V45.3636H41.2983V53H39.8118ZM40.5625 44.1854C40.304 44.1854 40.0819 44.0992 39.8963 43.9268C39.714 43.7512 39.6229 43.5424 39.6229 43.3004C39.6229 43.0552 39.714 42.8464 39.8963 42.674C40.0819 42.4983 40.304 42.4105 40.5625 42.4105C40.821 42.4105 41.0414 42.4983 41.2237 42.674C41.4093 42.8464 41.5021 43.0552 41.5021 43.3004C41.5021 43.5424 41.4093 43.7512 41.2237 43.9268C41.0414 44.0992 40.821 44.1854 40.5625 44.1854ZM46.1568 53.1491C45.5403 53.1491 44.9901 52.9917 44.5062 52.6768C44.0256 52.3587 43.6478 51.9062 43.3727 51.3196C43.1009 50.7296 42.965 50.022 42.965 49.1967C42.965 48.3714 43.1026 47.6655 43.3777 47.0788C43.6561 46.4922 44.0372 46.0431 44.5211 45.7315C45.005 45.42 45.5536 45.2642 46.1667 45.2642C46.6407 45.2642 47.0218 45.3438 47.3102 45.5028C47.6019 45.6586 47.8272 45.8409 47.9863 46.0497C48.1487 46.2585 48.2747 46.4425 48.3642 46.6016H48.4537V42.8182H49.9402V53H48.4885V51.8118H48.3642C48.2747 51.9742 48.1454 52.1598 47.9764 52.3686C47.8107 52.5774 47.582 52.7597 47.2903 52.9155C46.9986 53.0713 46.6208 53.1491 46.1568 53.1491ZM46.4849 51.8814C46.9125 51.8814 47.2737 51.7687 47.5687 51.5433C47.867 51.3146 48.0924 50.9981 48.2449 50.5938C48.4006 50.1894 48.4785 49.7187 48.4785 49.1818C48.4785 48.6515 48.4023 48.1875 48.2498 47.7898C48.0974 47.392 47.8736 47.0821 47.5787 46.8601C47.2837 46.638 46.9191 46.527 46.4849 46.527C46.0375 46.527 45.6646 46.643 45.3663 46.875C45.068 47.107 44.8426 47.4235 44.6902 47.8246C44.541 48.2256 44.4664 48.678 44.4664 49.1818C44.4664 49.6922 44.5427 50.1513 44.6951 50.5589C44.8476 50.9666 45.073 51.2898 45.3713 51.5284C45.6729 51.7637 46.0441 51.8814 46.4849 51.8814ZM55.353 53.1541C54.6006 53.1541 53.9527 52.9934 53.4091 52.6719C52.8688 52.3471 52.4512 51.8913 52.1562 51.3047C51.8646 50.7147 51.7188 50.0237 51.7188 49.2315C51.7188 48.4493 51.8646 47.7599 52.1562 47.1634C52.4512 46.5668 52.8622 46.1011 53.3892 45.7663C53.9195 45.4316 54.5393 45.2642 55.2486 45.2642C55.6795 45.2642 56.0971 45.3355 56.5014 45.478C56.9058 45.6205 57.2687 45.8442 57.5902 46.1491C57.9117 46.4541 58.1652 46.8501 58.3509 47.3374C58.5365 47.8213 58.6293 48.4096 58.6293 49.1023V49.6293H52.5589V48.5156H57.1726C57.1726 48.1245 57.093 47.7782 56.9339 47.4766C56.7749 47.1716 56.5511 46.9313 56.2628 46.7557C55.9777 46.58 55.643 46.4922 55.2585 46.4922C54.8409 46.4922 54.4763 46.5949 54.1648 46.8004C53.8565 47.0026 53.6179 47.2678 53.4489 47.5959C53.2831 47.9207 53.2003 48.2737 53.2003 48.6548V49.5249C53.2003 50.0353 53.2898 50.4695 53.4688 50.8274C53.651 51.1854 53.9046 51.4588 54.2294 51.6477C54.5542 51.8333 54.9337 51.9261 55.3679 51.9261C55.6496 51.9261 55.9065 51.8864 56.1385 51.8068C56.3705 51.724 56.571 51.6013 56.7401 51.4389C56.9091 51.2765 57.0384 51.076 57.1278 50.8374L58.5348 51.0909C58.4221 51.5052 58.2199 51.8681 57.9283 52.1797C57.6399 52.4879 57.277 52.7282 56.8395 52.9006C56.4053 53.0696 55.9098 53.1541 55.353 53.1541Z" fill="white"/>
<path d="M103.575 46.1293H102.024C101.964 45.7978 101.853 45.5062 101.691 45.2543C101.529 45.0024 101.33 44.7886 101.094 44.6129C100.859 44.4373 100.596 44.3047 100.304 44.2152C100.016 44.1257 99.709 44.081 99.3842 44.081C98.7976 44.081 98.2723 44.2285 97.8082 44.5234C97.3475 44.8184 96.983 45.2509 96.7145 45.821C96.4493 46.3911 96.3168 47.0871 96.3168 47.9091C96.3168 48.7377 96.4493 49.437 96.7145 50.0071C96.983 50.5772 97.3492 51.008 97.8132 51.2997C98.2772 51.5914 98.7992 51.7372 99.3793 51.7372C99.7008 51.7372 100.006 51.6941 100.294 51.608C100.586 51.5185 100.849 51.3875 101.085 51.2152C101.32 51.0429 101.519 50.8324 101.681 50.5838C101.847 50.3319 101.961 50.0436 102.024 49.7188L103.575 49.7237C103.492 50.2242 103.332 50.6849 103.093 51.1058C102.858 51.5234 102.554 51.8847 102.183 52.1896C101.815 52.4912 101.394 52.7249 100.92 52.8906C100.446 53.0563 99.9295 53.1392 99.3693 53.1392C98.4877 53.1392 97.7022 52.9304 97.0128 52.5128C96.3234 52.0919 95.7798 51.4903 95.3821 50.7081C94.9877 49.9259 94.7905 48.9929 94.7905 47.9091C94.7905 46.822 94.9893 45.889 95.3871 45.1101C95.7848 44.3279 96.3284 43.728 97.0178 43.3104C97.7071 42.8894 98.491 42.679 99.3693 42.679C99.9096 42.679 100.413 42.7569 100.881 42.9126C101.351 43.0651 101.774 43.2905 102.148 43.5888C102.523 43.8838 102.833 44.245 103.078 44.6726C103.323 45.0968 103.489 45.5824 103.575 46.1293ZM108.511 53.1541C107.795 53.1541 107.17 52.9901 106.637 52.6619C106.103 52.3338 105.689 51.8748 105.394 51.2848C105.099 50.6948 104.951 50.0054 104.951 49.2166C104.951 48.4245 105.099 47.7318 105.394 47.1385C105.689 46.5452 106.103 46.0845 106.637 45.7564C107.17 45.4283 107.795 45.2642 108.511 45.2642C109.227 45.2642 109.852 45.4283 110.385 45.7564C110.919 46.0845 111.333 46.5452 111.628 47.1385C111.923 47.7318 112.07 48.4245 112.07 49.2166C112.07 50.0054 111.923 50.6948 111.628 51.2848C111.333 51.8748 110.919 52.3338 110.385 52.6619C109.852 52.9901 109.227 53.1541 108.511 53.1541ZM108.516 51.9062C108.98 51.9062 109.364 51.7836 109.669 51.5384C109.974 51.2931 110.2 50.9666 110.345 50.5589C110.494 50.1513 110.569 49.7022 110.569 49.2116C110.569 48.7244 110.494 48.277 110.345 47.8693C110.2 47.4583 109.974 47.1286 109.669 46.88C109.364 46.6314 108.98 46.5071 108.516 46.5071C108.048 46.5071 107.661 46.6314 107.352 46.88C107.048 47.1286 106.82 47.4583 106.671 47.8693C106.526 48.277 106.453 48.7244 106.453 49.2116C106.453 49.7022 106.526 50.1513 106.671 50.5589C106.82 50.9666 107.048 51.2931 107.352 51.5384C107.661 51.7836 108.048 51.9062 108.516 51.9062ZM115.216 48.4659V53H113.73V45.3636H115.157V46.6065H115.251C115.427 46.2022 115.702 45.8774 116.076 45.6321C116.454 45.3868 116.93 45.2642 117.503 45.2642C118.024 45.2642 118.479 45.3736 118.87 45.5923C119.261 45.8078 119.565 46.1293 119.78 46.5568C119.996 46.9844 120.103 47.513 120.103 48.1428V53H118.617V48.3217C118.617 47.7682 118.473 47.3357 118.184 47.0241C117.896 46.7093 117.5 46.5518 116.996 46.5518C116.651 46.5518 116.345 46.6264 116.076 46.7756C115.811 46.9247 115.601 47.1435 115.445 47.4318C115.292 47.7169 115.216 48.0616 115.216 48.4659ZM125.731 45.3636V46.5568H121.416V45.3636H125.731ZM122.599 53V44.4787C122.599 44.0014 122.703 43.6053 122.912 43.2905C123.121 42.9723 123.398 42.7353 123.743 42.5795C124.087 42.4205 124.462 42.3409 124.866 42.3409C125.164 42.3409 125.42 42.3658 125.632 42.4155C125.844 42.4619 126.001 42.505 126.104 42.5447L125.756 43.7479C125.686 43.728 125.597 43.7048 125.488 43.6783C125.378 43.6484 125.246 43.6335 125.09 43.6335C124.729 43.6335 124.47 43.723 124.314 43.902C124.162 44.081 124.086 44.3395 124.086 44.6776V53H122.599ZM127.265 53V45.3636H128.751V53H127.265ZM128.016 44.1854C127.757 44.1854 127.535 44.0992 127.349 43.9268C127.167 43.7512 127.076 43.5424 127.076 43.3004C127.076 43.0552 127.167 42.8464 127.349 42.674C127.535 42.4983 127.757 42.4105 128.016 42.4105C128.274 42.4105 128.495 42.4983 128.677 42.674C128.862 42.8464 128.955 43.0552 128.955 43.3004C128.955 43.5424 128.862 43.7512 128.677 43.9268C128.495 44.0992 128.274 44.1854 128.016 44.1854ZM133.953 56.0227C133.346 56.0227 132.824 55.9432 132.387 55.7841C131.953 55.625 131.598 55.4145 131.323 55.1527C131.048 54.8909 130.842 54.6042 130.706 54.2926L131.984 53.7656C132.074 53.9115 132.193 54.0656 132.342 54.228C132.495 54.3937 132.7 54.5346 132.959 54.6506C133.22 54.7666 133.557 54.8246 133.968 54.8246C134.531 54.8246 134.997 54.687 135.365 54.4119C135.733 54.1402 135.917 53.706 135.917 53.1094V51.608H135.822C135.733 51.7704 135.604 51.951 135.434 52.1499C135.269 52.3487 135.04 52.5211 134.748 52.6669C134.457 52.8127 134.077 52.8857 133.61 52.8857C133.007 52.8857 132.463 52.7448 131.979 52.4631C131.499 52.178 131.117 51.7588 130.836 51.2053C130.557 50.6484 130.418 49.964 130.418 49.152C130.418 48.34 130.556 47.6439 130.831 47.0639C131.109 46.4839 131.49 46.0398 131.974 45.7315C132.458 45.42 133.007 45.2642 133.62 45.2642C134.094 45.2642 134.477 45.3438 134.768 45.5028C135.06 45.6586 135.287 45.8409 135.449 46.0497C135.615 46.2585 135.743 46.4425 135.832 46.6016H135.942V45.3636H137.398V53.169C137.398 53.8253 137.246 54.3639 136.941 54.7848C136.636 55.2057 136.223 55.5173 135.703 55.7195C135.186 55.9216 134.603 56.0227 133.953 56.0227ZM133.938 51.6527C134.366 51.6527 134.727 51.5533 135.022 51.3544C135.32 51.1522 135.546 50.8639 135.698 50.4893C135.854 50.1115 135.932 49.6591 135.932 49.1321C135.932 48.6184 135.855 48.166 135.703 47.7749C135.55 47.3838 135.327 47.0788 135.032 46.8601C134.737 46.638 134.372 46.527 133.938 46.527C133.491 46.527 133.118 46.643 132.819 46.875C132.521 47.1037 132.296 47.4152 132.143 47.8097C131.994 48.2041 131.92 48.6449 131.92 49.1321C131.92 49.6326 131.996 50.0717 132.148 50.4496C132.301 50.8274 132.526 51.1224 132.824 51.3345C133.126 51.5466 133.497 51.6527 133.938 51.6527Z" fill="white"/>
<path d="M169.119 53V42.8182H172.748C173.54 42.8182 174.196 42.9624 174.717 43.2507C175.237 43.5391 175.626 43.9335 175.885 44.4339C176.143 44.9311 176.273 45.4912 176.273 46.1143C176.273 46.7408 176.142 47.3042 175.88 47.8047C175.621 48.3018 175.23 48.6963 174.707 48.9879C174.186 49.2763 173.532 49.4205 172.743 49.4205H170.247V48.1179H172.604C173.104 48.1179 173.51 48.0317 173.822 47.8594C174.133 47.6837 174.362 47.4451 174.508 47.1435C174.654 46.8419 174.727 46.4988 174.727 46.1143C174.727 45.7299 174.654 45.3885 174.508 45.0902C174.362 44.7919 174.132 44.5582 173.817 44.3892C173.505 44.2202 173.094 44.1357 172.584 44.1357H170.655V53H169.119ZM179.441 42.8182V53H177.954V42.8182H179.441ZM186.278 49.8331V45.3636H187.77V53H186.308V51.6776H186.228C186.053 52.0852 185.771 52.425 185.383 52.6967C184.999 52.9652 184.52 53.0994 183.946 53.0994C183.456 53.0994 183.022 52.9917 182.644 52.7763C182.269 52.5575 181.974 52.2344 181.759 51.8068C181.547 51.3793 181.441 50.8506 181.441 50.2209V45.3636H182.927V50.0419C182.927 50.5623 183.071 50.9766 183.36 51.2848C183.648 51.593 184.023 51.7472 184.483 51.7472C184.762 51.7472 185.038 51.6776 185.314 51.5384C185.592 51.3991 185.822 51.1887 186.005 50.907C186.19 50.6252 186.281 50.2673 186.278 49.8331ZM192.969 56.0227C192.362 56.0227 191.84 55.9432 191.403 55.7841C190.968 55.625 190.614 55.4145 190.339 55.1527C190.064 54.8909 189.858 54.6042 189.722 54.2926L191 53.7656C191.089 53.9115 191.209 54.0656 191.358 54.228C191.51 54.3937 191.716 54.5346 191.974 54.6506C192.236 54.7666 192.573 54.8246 192.983 54.8246C193.547 54.8246 194.013 54.687 194.381 54.4119C194.748 54.1402 194.932 53.706 194.932 53.1094V51.608H194.838C194.748 51.7704 194.619 51.951 194.45 52.1499C194.284 52.3487 194.056 52.5211 193.764 52.6669C193.472 52.8127 193.093 52.8857 192.626 52.8857C192.022 52.8857 191.479 52.7448 190.995 52.4631C190.514 52.178 190.133 51.7588 189.851 51.2053C189.573 50.6484 189.434 49.964 189.434 49.152C189.434 48.34 189.571 47.6439 189.846 47.0639C190.125 46.4839 190.506 46.0398 190.99 45.7315C191.474 45.42 192.022 45.2642 192.635 45.2642C193.109 45.2642 193.492 45.3438 193.784 45.5028C194.076 45.6586 194.303 45.8409 194.465 46.0497C194.631 46.2585 194.758 46.4425 194.848 46.6016H194.957V45.3636H196.414V53.169C196.414 53.8253 196.261 54.3639 195.956 54.7848C195.652 55.2057 195.239 55.5173 194.719 55.7195C194.202 55.9216 193.618 56.0227 192.969 56.0227ZM192.954 51.6527C193.381 51.6527 193.742 51.5533 194.037 51.3544C194.336 51.1522 194.561 50.8639 194.714 50.4893C194.869 50.1115 194.947 49.6591 194.947 49.1321C194.947 48.6184 194.871 48.166 194.719 47.7749C194.566 47.3838 194.342 47.0788 194.047 46.8601C193.752 46.638 193.388 46.527 192.954 46.527C192.506 46.527 192.133 46.643 191.835 46.875C191.537 47.1037 191.311 47.4152 191.159 47.8097C191.01 48.2041 190.935 48.6449 190.935 49.1321C190.935 49.6326 191.011 50.0717 191.164 50.4496C191.316 50.8274 191.542 51.1224 191.84 51.3345C192.142 51.5466 192.513 51.6527 192.954 51.6527ZM198.407 53V45.3636H199.894V53H198.407ZM199.158 44.1854C198.9 44.1854 198.678 44.0992 198.492 43.9268C198.31 43.7512 198.219 43.5424 198.219 43.3004C198.219 43.0552 198.31 42.8464 198.492 42.674C198.678 42.4983 198.9 42.4105 199.158 42.4105C199.417 42.4105 199.637 42.4983 199.819 42.674C200.005 42.8464 200.098 43.0552 200.098 43.3004C200.098 43.5424 200.005 43.7512 199.819 43.9268C199.637 44.0992 199.417 44.1854 199.158 44.1854ZM203.38 48.4659V53H201.894V45.3636H203.321V46.6065H203.415C203.591 46.2022 203.866 45.8774 204.24 45.6321C204.618 45.3868 205.094 45.2642 205.667 45.2642C206.188 45.2642 206.643 45.3736 207.034 45.5923C207.426 45.8078 207.729 46.1293 207.944 46.5568C208.16 46.9844 208.267 47.513 208.267 48.1428V53H206.781V48.3217C206.781 47.7682 206.637 47.3357 206.348 47.0241C206.06 46.7093 205.664 46.5518 205.16 46.5518C204.815 46.5518 204.509 46.6264 204.24 46.7756C203.975 46.9247 203.765 47.1435 203.609 47.4318C203.457 47.7169 203.38 48.0616 203.38 48.4659ZM215.983 47.228L214.636 47.4666C214.58 47.2943 214.49 47.1302 214.368 46.9744C214.248 46.8187 214.086 46.6911 213.88 46.5916C213.675 46.4922 213.418 46.4425 213.11 46.4425C212.689 46.4425 212.337 46.5369 212.056 46.7259C211.774 46.9115 211.633 47.1518 211.633 47.4467C211.633 47.7019 211.728 47.9074 211.917 48.0632C212.105 48.219 212.41 48.3466 212.831 48.446L214.044 48.7244C214.747 48.8868 215.271 49.1371 215.615 49.4751C215.96 49.8132 216.132 50.2524 216.132 50.7926C216.132 51.25 216 51.6577 215.735 52.0156C215.473 52.3703 215.107 52.6487 214.636 52.8509C214.169 53.053 213.627 53.1541 213.01 53.1541C212.155 53.1541 211.458 52.9718 210.917 52.6072C210.377 52.2393 210.046 51.7173 209.923 51.0412L211.36 50.8224C211.449 51.197 211.633 51.4804 211.912 51.6726C212.19 51.8615 212.553 51.956 213 51.956C213.488 51.956 213.877 51.8549 214.169 51.6527C214.46 51.4472 214.606 51.197 214.606 50.902C214.606 50.6634 214.517 50.4628 214.338 50.3004C214.162 50.138 213.892 50.0154 213.527 49.9325L212.235 49.6491C211.522 49.4867 210.995 49.2282 210.654 48.8736C210.316 48.5189 210.147 48.0698 210.147 47.5263C210.147 47.0755 210.273 46.6811 210.525 46.343C210.776 46.005 211.124 45.7415 211.569 45.5526C212.013 45.3603 212.521 45.2642 213.095 45.2642C213.92 45.2642 214.57 45.4432 215.044 45.8011C215.518 46.1558 215.831 46.6314 215.983 47.228Z" fill="white"/>
<path d="M243.119 53V42.8182H246.748C247.537 42.8182 248.191 42.9541 248.712 43.2259C249.235 43.4976 249.626 43.8738 249.885 44.3544C250.143 44.8317 250.273 45.3835 250.273 46.0099C250.273 46.633 250.142 47.1816 249.88 47.6555C249.621 48.1262 249.23 48.4924 248.707 48.7543C248.186 49.0161 247.532 49.147 246.743 49.147H243.994V47.8246H246.604C247.101 47.8246 247.505 47.7533 247.817 47.6108C248.132 47.4683 248.362 47.2611 248.508 46.9893C248.654 46.7176 248.727 46.3911 248.727 46.0099C248.727 45.6255 248.652 45.2924 248.503 45.0107C248.357 44.7289 248.127 44.5135 247.812 44.3643C247.5 44.2119 247.091 44.1357 246.584 44.1357H244.655V53H243.119ZM248.145 48.4062L250.661 53H248.911L246.445 48.4062H248.145ZM255.218 53.1541C254.466 53.1541 253.818 52.9934 253.274 52.6719C252.734 52.3471 252.316 51.8913 252.021 51.3047C251.73 50.7147 251.584 50.0237 251.584 49.2315C251.584 48.4493 251.73 47.7599 252.021 47.1634C252.316 46.5668 252.727 46.1011 253.254 45.7663C253.785 45.4316 254.405 45.2642 255.114 45.2642C255.545 45.2642 255.962 45.3355 256.367 45.478C256.771 45.6205 257.134 45.8442 257.455 46.1491C257.777 46.4541 258.03 46.8501 258.216 47.3374C258.402 47.8213 258.494 48.4096 258.494 49.1023V49.6293H252.424V48.5156H257.038C257.038 48.1245 256.958 47.7782 256.799 47.4766C256.64 47.1716 256.416 46.9313 256.128 46.7557C255.843 46.58 255.508 46.4922 255.124 46.4922C254.706 46.4922 254.342 46.5949 254.03 46.8004C253.722 47.0026 253.483 47.2678 253.314 47.5959C253.148 47.9207 253.066 48.2737 253.066 48.6548V49.5249C253.066 50.0353 253.155 50.4695 253.334 50.8274C253.516 51.1854 253.77 51.4588 254.095 51.6477C254.419 51.8333 254.799 51.9261 255.233 51.9261C255.515 51.9261 255.772 51.8864 256.004 51.8068C256.236 51.724 256.436 51.6013 256.605 51.4389C256.774 51.2765 256.904 51.076 256.993 50.8374L258.4 51.0909C258.287 51.5052 258.085 51.8681 257.794 52.1797C257.505 52.4879 257.142 52.7282 256.705 52.9006C256.271 53.0696 255.775 53.1541 255.218 53.1541ZM265.866 47.228L264.519 47.4666C264.462 47.2943 264.373 47.1302 264.25 46.9744C264.131 46.8187 263.969 46.6911 263.763 46.5916C263.558 46.4922 263.301 46.4425 262.993 46.4425C262.572 46.4425 262.22 46.5369 261.939 46.7259C261.657 46.9115 261.516 47.1518 261.516 47.4467C261.516 47.7019 261.61 47.9074 261.799 48.0632C261.988 48.219 262.293 48.3466 262.714 48.446L263.927 48.7244C264.63 48.8868 265.154 49.1371 265.498 49.4751C265.843 49.8132 266.015 50.2524 266.015 50.7926C266.015 51.25 265.883 51.6577 265.618 52.0156C265.356 52.3703 264.989 52.6487 264.519 52.8509C264.051 53.053 263.51 53.1541 262.893 53.1541C262.038 53.1541 261.34 52.9718 260.8 52.6072C260.26 52.2393 259.928 51.7173 259.806 51.0412L261.243 50.8224C261.332 51.197 261.516 51.4804 261.794 51.6726C262.073 51.8615 262.436 51.956 262.883 51.956C263.37 51.956 263.76 51.8549 264.051 51.6527C264.343 51.4472 264.489 51.197 264.489 50.902C264.489 50.6634 264.4 50.4628 264.221 50.3004C264.045 50.138 263.775 50.0154 263.41 49.9325L262.118 49.6491C261.405 49.4867 260.878 49.2282 260.537 48.8736C260.199 48.5189 260.029 48.0698 260.029 47.5263C260.029 47.0755 260.155 46.6811 260.407 46.343C260.659 46.005 261.007 45.7415 261.451 45.5526C261.895 45.3603 262.404 45.2642 262.978 45.2642C263.803 45.2642 264.453 45.4432 264.926 45.8011C265.4 46.1558 265.714 46.6314 265.866 47.228ZM270.866 53.1541C270.15 53.1541 269.526 52.9901 268.992 52.6619C268.458 52.3338 268.044 51.8748 267.749 51.2848C267.454 50.6948 267.307 50.0054 267.307 49.2166C267.307 48.4245 267.454 47.7318 267.749 47.1385C268.044 46.5452 268.458 46.0845 268.992 45.7564C269.526 45.4283 270.15 45.2642 270.866 45.2642C271.582 45.2642 272.207 45.4283 272.741 45.7564C273.274 46.0845 273.689 46.5452 273.983 47.1385C274.278 47.7318 274.426 48.4245 274.426 49.2166C274.426 50.0054 274.278 50.6948 273.983 51.2848C273.689 51.8748 273.274 52.3338 272.741 52.6619C272.207 52.9901 271.582 53.1541 270.866 53.1541ZM270.871 51.9062C271.335 51.9062 271.72 51.7836 272.025 51.5384C272.33 51.2931 272.555 50.9666 272.701 50.5589C272.85 50.1513 272.925 49.7022 272.925 49.2116C272.925 48.7244 272.85 48.277 272.701 47.8693C272.555 47.4583 272.33 47.1286 272.025 46.88C271.72 46.6314 271.335 46.5071 270.871 46.5071C270.404 46.5071 270.016 46.6314 269.708 46.88C269.403 47.1286 269.176 47.4583 269.027 47.8693C268.881 48.277 268.808 48.7244 268.808 49.2116C268.808 49.7022 268.881 50.1513 269.027 50.5589C269.176 50.9666 269.403 51.2931 269.708 51.5384C270.016 51.7836 270.404 51.9062 270.871 51.9062ZM280.923 49.8331V45.3636H282.414V53H280.952V51.6776H280.873C280.697 52.0852 280.415 52.425 280.028 52.6967C279.643 52.9652 279.164 53.0994 278.591 53.0994C278.1 53.0994 277.666 52.9917 277.288 52.7763C276.914 52.5575 276.619 52.2344 276.403 51.8068C276.191 51.3793 276.085 50.8506 276.085 50.2209V45.3636H277.572V50.0419C277.572 50.5623 277.716 50.9766 278.004 51.2848C278.293 51.593 278.667 51.7472 279.128 51.7472C279.406 51.7472 279.683 51.6776 279.958 51.5384C280.237 51.3991 280.467 51.1887 280.649 50.907C280.835 50.6252 280.926 50.2673 280.923 49.8331ZM284.411 53V45.3636H285.848V46.5767H285.928C286.067 46.1657 286.312 45.8426 286.664 45.6072C287.018 45.3686 287.419 45.2493 287.867 45.2493C287.959 45.2493 288.069 45.2526 288.195 45.2592C288.324 45.2659 288.425 45.2741 288.498 45.2841V46.706C288.438 46.6894 288.332 46.6712 288.18 46.6513C288.027 46.6281 287.875 46.6165 287.722 46.6165C287.371 46.6165 287.058 46.6911 286.783 46.8402C286.511 46.986 286.296 47.1899 286.137 47.4517C285.977 47.7102 285.898 48.0052 285.898 48.3366V53H284.411ZM292.728 53.1541C291.989 53.1541 291.352 52.9867 290.819 52.652C290.288 52.3139 289.881 51.8482 289.596 51.255C289.31 50.6617 289.168 49.9822 289.168 49.2166C289.168 48.4411 289.314 47.7566 289.605 47.1634C289.897 46.5668 290.308 46.1011 290.838 45.7663C291.369 45.4316 291.993 45.2642 292.713 45.2642C293.293 45.2642 293.81 45.3719 294.264 45.5874C294.718 45.7995 295.084 46.0978 295.363 46.4822C295.644 46.8667 295.812 47.3158 295.865 47.8295H294.418C294.338 47.4716 294.156 47.1634 293.871 46.9048C293.589 46.6463 293.212 46.517 292.738 46.517C292.323 46.517 291.96 46.6264 291.649 46.8452C291.341 47.0606 291.1 47.3688 290.928 47.7699C290.756 48.1676 290.669 48.6383 290.669 49.1818C290.669 49.7386 290.754 50.2192 290.923 50.6236C291.092 51.0279 291.331 51.3411 291.639 51.5632C291.95 51.7853 292.317 51.8963 292.738 51.8963C293.019 51.8963 293.275 51.8449 293.503 51.7422C293.735 51.6361 293.929 51.4853 294.085 51.2898C294.244 51.0942 294.355 50.8589 294.418 50.5838H295.865C295.812 51.0777 295.651 51.5185 295.382 51.9062C295.114 52.294 294.754 52.599 294.304 52.821C293.856 53.0431 293.331 53.1541 292.728 53.1541ZM300.746 53.1541C299.993 53.1541 299.345 52.9934 298.802 52.6719C298.261 52.3471 297.844 51.8913 297.549 51.3047C297.257 50.7147 297.111 50.0237 297.111 49.2315C297.111 48.4493 297.257 47.7599 297.549 47.1634C297.844 46.5668 298.255 46.1011 298.782 45.7663C299.312 45.4316 299.932 45.2642 300.641 45.2642C301.072 45.2642 301.49 45.3355 301.894 45.478C302.298 45.6205 302.661 45.8442 302.983 46.1491C303.304 46.4541 303.558 46.8501 303.743 47.3374C303.929 47.8213 304.022 48.4096 304.022 49.1023V49.6293H297.952V48.5156H302.565C302.565 48.1245 302.486 47.7782 302.327 47.4766C302.167 47.1716 301.944 46.9313 301.655 46.7557C301.37 46.58 301.036 46.4922 300.651 46.4922C300.233 46.4922 299.869 46.5949 299.557 46.8004C299.249 47.0026 299.01 47.2678 298.841 47.5959C298.676 47.9207 298.593 48.2737 298.593 48.6548V49.5249C298.593 50.0353 298.682 50.4695 298.861 50.8274C299.044 51.1854 299.297 51.4588 299.622 51.6477C299.947 51.8333 300.326 51.9261 300.76 51.9261C301.042 51.9261 301.299 51.8864 301.531 51.8068C301.763 51.724 301.964 51.6013 302.133 51.4389C302.302 51.2765 302.431 51.076 302.52 50.8374L303.927 51.0909C303.815 51.5052 303.613 51.8681 303.321 52.1797C303.032 52.4879 302.67 52.7282 302.232 52.9006C301.798 53.0696 301.302 53.1541 300.746 53.1541ZM311.393 47.228L310.046 47.4666C309.99 47.2943 309.9 47.1302 309.778 46.9744C309.658 46.8187 309.496 46.6911 309.29 46.5916C309.085 46.4922 308.828 46.4425 308.52 46.4425C308.099 46.4425 307.748 46.5369 307.466 46.7259C307.184 46.9115 307.043 47.1518 307.043 47.4467C307.043 47.7019 307.138 47.9074 307.327 48.0632C307.516 48.219 307.821 48.3466 308.241 48.446L309.455 48.7244C310.157 48.8868 310.681 49.1371 311.026 49.4751C311.37 49.8132 311.543 50.2524 311.543 50.7926C311.543 51.25 311.41 51.6577 311.145 52.0156C310.883 52.3703 310.517 52.6487 310.046 52.8509C309.579 53.053 309.037 53.1541 308.42 53.1541C307.565 53.1541 306.868 52.9718 306.327 52.6072C305.787 52.2393 305.456 51.7173 305.333 51.0412L306.77 50.8224C306.859 51.197 307.043 51.4804 307.322 51.6726C307.6 51.8615 307.963 51.956 308.411 51.956C308.898 51.956 309.287 51.8549 309.579 51.6527C309.871 51.4472 310.016 51.197 310.016 50.902C310.016 50.6634 309.927 50.4628 309.748 50.3004C309.572 50.138 309.302 50.0154 308.938 49.9325L307.645 49.6491C306.932 49.4867 306.405 49.2282 306.064 48.8736C305.726 48.5189 305.557 48.0698 305.557 47.5263C305.557 47.0755 305.683 46.6811 305.935 46.343C306.187 46.005 306.535 45.7415 306.979 45.5526C307.423 45.3603 307.932 45.2642 308.505 45.2642C309.33 45.2642 309.98 45.4432 310.454 45.8011C310.928 46.1558 311.241 46.6314 311.393 47.228Z" fill="white"/>
<path d="M360.18 44.7066V45.2266C360.189 46.7367 359.899 48.2337 359.325 49.6307C358.751 51.0277 357.906 52.297 356.838 53.3649C355.77 54.4327 354.501 55.278 353.104 55.8516C351.707 56.4253 350.21 56.7158 348.7 56.7066C346.502 56.713 344.349 56.0844 342.5 54.8966H343.5C345.313 54.8966 347.074 54.2873 348.5 53.1666C347.655 53.159 346.834 52.884 346.155 52.3809C345.476 51.8779 344.973 51.1727 344.72 50.3666C344.975 50.4072 345.232 50.4272 345.49 50.4266C345.847 50.424 346.203 50.3804 346.55 50.2966C345.647 50.1121 344.834 49.6212 344.251 48.9069C343.668 48.1925 343.35 47.2987 343.35 46.3766C343.909 46.685 344.532 46.8595 345.17 46.8866C344.607 46.5142 344.146 46.0074 343.828 45.412C343.51 44.8166 343.346 44.1514 343.35 43.4766C343.351 42.774 343.537 42.0842 343.89 41.4766C344.902 42.7242 346.164 43.7454 347.596 44.4741C349.027 45.2028 350.596 45.6227 352.2 45.7066C352.137 45.4039 352.103 45.0958 352.1 44.7866C352.074 43.9634 352.303 43.1523 352.755 42.464C353.207 41.7757 353.86 41.2437 354.626 40.9407C355.392 40.6376 356.233 40.5784 357.033 40.7709C357.834 40.9635 358.556 41.3985 359.1 42.0166C360.005 41.8348 360.871 41.4963 361.66 41.0166C361.359 41.9497 360.725 42.7397 359.88 43.2366C360.684 43.1497 361.469 42.9406 362.21 42.6166C361.662 43.4175 360.986 44.1235 360.21 44.7066H360.18Z" fill="#828282"/>
<path d="M390.59 41.89C389.36 41.32 388.05 40.9 386.67 40.66C386.5 40.96 386.3 41.37 386.17 41.7C384.71 41.48 383.26 41.48 381.83 41.7C381.69 41.37 381.49 40.96 381.32 40.66C379.94 40.9 378.63 41.32 377.4 41.89C374.92 45.63 374.25 49.28 374.58 52.87C376.23 54.1 377.82 54.84 379.39 55.33C379.78 54.8 380.12 54.23 380.42 53.64C379.85 53.43 379.31 53.16 378.8 52.85C378.94 52.75 379.07 52.64 379.2 52.54C382.33 54 385.72 54 388.81 52.54C388.94 52.65 389.07 52.75 389.21 52.85C388.7 53.16 388.15 53.42 387.59 53.64C387.89 54.23 388.23 54.8 388.62 55.33C390.19 54.84 391.79 54.1 393.43 52.87C393.82 48.7 392.76 45.09 390.61 41.89H390.59ZM380.84 50.67C379.9 50.67 379.13 49.8 379.13 48.73C379.13 47.66 379.88 46.79 380.84 46.79C381.8 46.79 382.56 47.66 382.55 48.73C382.55 49.79 381.8 50.67 380.84 50.67ZM387.15 50.67C386.21 50.67 385.44 49.8 385.44 48.73C385.44 47.66 386.19 46.79 387.15 46.79C388.11 46.79 388.87 47.66 388.86 48.73C388.86 49.79 388.11 50.67 387.15 50.67Z" fill="#828282"/>
<path d="M412.854 53.5405C412.854 53.6105 412.784 53.6605 412.684 53.6605C412.584 53.6605 412.504 53.6605 412.504 53.5405C412.504 53.4205 412.584 53.4205 412.674 53.4205C412.764 53.4205 412.854 53.4705 412.854 53.5405ZM411.854 53.3905C411.854 53.4605 411.854 53.5405 411.994 53.5605C412.03 53.5777 412.071 53.58 412.108 53.5669C412.146 53.5538 412.176 53.5263 412.194 53.4905C412.194 53.4205 412.194 53.3505 412.054 53.3205C411.914 53.2905 411.874 53.3205 411.854 53.3905ZM413.274 53.3405C413.184 53.3405 413.124 53.4205 413.134 53.5005C413.144 53.5805 413.224 53.6105 413.324 53.5905C413.424 53.5705 413.474 53.5005 413.464 53.4305C413.454 53.3605 413.374 53.3305 413.274 53.3405ZM415.404 40.6605C414.349 40.6506 413.303 40.8539 412.329 41.2581C411.355 41.6623 410.473 42.2591 409.735 43.0128C408.997 43.7665 408.419 44.6614 408.036 45.644C407.652 46.6265 407.471 47.6764 407.504 48.7305C407.476 50.4574 407.988 52.1499 408.969 53.5716C409.949 54.9933 411.349 56.0733 412.974 56.6605C413.384 56.7305 413.534 56.4705 413.534 56.2605V54.2605C413.534 54.2605 411.274 54.7605 410.794 53.2605C410.794 53.2605 410.434 52.2605 409.904 52.0505C409.904 52.0505 409.164 51.5305 409.954 51.5405C410.212 51.5754 410.459 51.6705 410.675 51.8181C410.89 51.9657 411.068 52.1618 411.194 52.3905C411.298 52.5956 411.444 52.7772 411.621 52.9241C411.798 53.0709 412.004 53.18 412.225 53.2446C412.446 53.3092 412.678 53.328 412.906 53.2998C413.135 53.2716 413.355 53.197 413.554 53.0805C413.592 52.663 413.772 52.2712 414.064 51.9705C412.264 51.7605 410.444 51.5005 410.444 48.3105C410.425 47.9502 410.482 47.5899 410.614 47.2536C410.745 46.9174 410.946 46.6129 411.204 46.3605C410.96 45.6285 410.989 44.8333 411.284 44.1205C411.964 43.9005 413.514 45.0105 413.514 45.0105C414.838 44.6371 416.24 44.6371 417.564 45.0105C417.564 45.0105 419.114 43.9005 419.794 44.1205C420.095 44.8319 420.124 45.6295 419.874 46.3605C420.141 46.6095 420.353 46.9116 420.496 47.2475C420.638 47.5834 420.709 47.9455 420.704 48.3105C420.704 51.5105 418.804 51.7605 417.004 51.9705C417.185 52.1735 417.322 52.4111 417.408 52.669C417.494 52.9269 417.527 53.1997 417.504 53.4705V56.2405C417.503 56.3081 417.519 56.3748 417.549 56.435C417.58 56.4952 417.625 56.5471 417.68 56.5863C417.735 56.6256 417.798 56.651 417.865 56.6604C417.932 56.6699 418 56.6631 418.064 56.6405C419.685 56.0583 421.082 54.9815 422.058 53.5622C423.035 52.1429 423.54 50.4527 423.504 48.7305C423.513 47.6656 423.31 46.6095 422.906 45.6242C422.502 44.6389 421.905 43.7442 421.15 42.9926C420.396 42.2409 419.499 41.6475 418.512 41.247C417.525 40.8466 416.469 40.6472 415.404 40.6605ZM410.644 52.0705V52.2405C410.655 52.2517 410.668 52.2606 410.683 52.2667C410.697 52.2727 410.713 52.2758 410.729 52.2758C410.744 52.2758 410.76 52.2727 410.775 52.2667C410.789 52.2606 410.803 52.2517 410.814 52.2405C410.814 52.2405 410.814 52.1305 410.814 52.0605C410.814 51.9905 410.684 52.0305 410.644 52.0705ZM410.294 51.8005C410.294 51.8005 410.294 51.9005 410.364 51.9305C410.372 51.941 410.383 51.9494 410.395 51.9552C410.407 51.961 410.42 51.964 410.434 51.964C410.447 51.964 410.46 51.961 410.472 51.9552C410.485 51.9494 410.495 51.941 410.504 51.9305C410.504 51.9305 410.504 51.8305 410.434 51.8005C410.364 51.7705 410.314 51.7705 410.294 51.8005ZM411.294 52.9805V53.1905C411.294 53.2605 411.464 53.2705 411.504 53.1905C411.544 53.1105 411.504 53.0505 411.504 52.9805C411.504 52.9105 411.374 52.9305 411.334 52.9805H411.294ZM410.924 52.4905V52.6905C410.924 52.7705 411.064 52.8005 411.114 52.7705C411.139 52.7414 411.153 52.7041 411.153 52.6655C411.153 52.627 411.139 52.5897 411.114 52.5605C411.064 52.4805 410.984 52.4505 410.924 52.4905Z" fill="#828282"/>
<line x1="158.575" y1="119.717" x2="165.646" y2="112.646" stroke="#E0E0E0"/>
<line x1="159.283" y1="112.717" x2="166.354" y2="119.789" stroke="#E0E0E0"/>
<path d="M28.0092 160.177C27.9131 159.875 27.7839 159.605 27.6214 159.367C27.4624 159.125 27.2718 158.919 27.0497 158.75C26.8277 158.578 26.5741 158.447 26.2891 158.357C26.0073 158.268 25.6974 158.223 25.3594 158.223C24.786 158.223 24.2689 158.371 23.8082 158.666C23.3475 158.961 22.983 159.393 22.7145 159.963C22.4493 160.53 22.3168 161.224 22.3168 162.046C22.3168 162.871 22.451 163.569 22.7195 164.139C22.9879 164.709 23.3558 165.142 23.8232 165.437C24.2905 165.732 24.8224 165.879 25.419 165.879C25.9725 165.879 26.4548 165.767 26.8658 165.541C27.2801 165.316 27.5999 164.998 27.8253 164.587C28.054 164.172 28.1683 163.685 28.1683 163.125L28.5661 163.2H25.6527V161.932H29.6548V163.09C29.6548 163.945 29.4725 164.688 29.108 165.318C28.7467 165.944 28.2462 166.428 27.6065 166.769C26.9702 167.111 26.241 167.281 25.419 167.281C24.4976 167.281 23.6889 167.069 22.9929 166.645C22.3002 166.221 21.7599 165.619 21.3722 164.84C20.9844 164.058 20.7905 163.13 20.7905 162.056C20.7905 161.244 20.9032 160.515 21.1286 159.869C21.3539 159.222 21.6705 158.674 22.0781 158.223C22.4891 157.769 22.9714 157.423 23.5249 157.184C24.0817 156.942 24.6899 156.821 25.3494 156.821C25.8996 156.821 26.4117 156.902 26.8857 157.065C27.3629 157.227 27.7872 157.457 28.1584 157.756C28.5329 158.054 28.8428 158.409 29.0881 158.82C29.3333 159.227 29.4991 159.68 29.5852 160.177H28.0092ZM36.323 163.975V159.506H37.8145V167.142H36.3528V165.82H36.2733C36.0976 166.227 35.8159 166.567 35.4281 166.839C35.0436 167.107 34.5647 167.242 33.9913 167.242C33.5008 167.242 33.0666 167.134 32.6887 166.918C32.3142 166.7 32.0192 166.376 31.8038 165.949C31.5917 165.521 31.4856 164.993 31.4856 164.363V159.506H32.9721V164.184C32.9721 164.704 33.1163 165.119 33.4047 165.427C33.693 165.735 34.0675 165.889 34.5282 165.889C34.8066 165.889 35.0834 165.82 35.3585 165.68C35.6369 165.541 35.8672 165.331 36.0495 165.049C36.2351 164.767 36.3263 164.409 36.323 163.975ZM39.8118 167.142V159.506H41.2983V167.142H39.8118ZM40.5625 158.327C40.304 158.327 40.0819 158.241 39.8963 158.069C39.714 157.893 39.6229 157.684 39.6229 157.443C39.6229 157.197 39.714 156.988 39.8963 156.816C40.0819 156.64 40.304 156.553 40.5625 156.553C40.821 156.553 41.0414 156.64 41.2237 156.816C41.4093 156.988 41.5021 157.197 41.5021 157.443C41.5021 157.684 41.4093 157.893 41.2237 158.069C41.0414 158.241 40.821 158.327 40.5625 158.327ZM46.1568 167.291C45.5403 167.291 44.9901 167.134 44.5062 166.819C44.0256 166.501 43.6478 166.048 43.3727 165.462C43.1009 164.872 42.965 164.164 42.965 163.339C42.965 162.514 43.1026 161.808 43.3777 161.221C43.6561 160.634 44.0372 160.185 44.5211 159.874C45.005 159.562 45.5536 159.406 46.1667 159.406C46.6407 159.406 47.0218 159.486 47.3102 159.645C47.6019 159.801 47.8272 159.983 47.9863 160.192C48.1487 160.401 48.2747 160.585 48.3642 160.744H48.4537V156.96H49.9402V167.142H48.4885V165.954H48.3642C48.2747 166.116 48.1454 166.302 47.9764 166.511C47.8107 166.72 47.582 166.902 47.2903 167.058C46.9986 167.213 46.6208 167.291 46.1568 167.291ZM46.4849 166.023C46.9125 166.023 47.2737 165.911 47.5687 165.685C47.867 165.457 48.0924 165.14 48.2449 164.736C48.4006 164.331 48.4785 163.861 48.4785 163.324C48.4785 162.794 48.4023 162.33 48.2498 161.932C48.0974 161.534 47.8736 161.224 47.5787 161.002C47.2837 160.78 46.9191 160.669 46.4849 160.669C46.0375 160.669 45.6646 160.785 45.3663 161.017C45.068 161.249 44.8426 161.566 44.6902 161.967C44.541 162.368 44.4664 162.82 44.4664 163.324C44.4664 163.834 44.5427 164.293 44.6951 164.701C44.8476 165.109 45.073 165.432 45.3713 165.67C45.6729 165.906 46.0441 166.023 46.4849 166.023ZM55.353 167.296C54.6006 167.296 53.9527 167.135 53.4091 166.814C52.8688 166.489 52.4512 166.033 52.1562 165.447C51.8646 164.857 51.7188 164.166 51.7188 163.374C51.7188 162.591 51.8646 161.902 52.1562 161.305C52.4512 160.709 52.8622 160.243 53.3892 159.908C53.9195 159.574 54.5393 159.406 55.2486 159.406C55.6795 159.406 56.0971 159.478 56.5014 159.62C56.9058 159.763 57.2687 159.986 57.5902 160.291C57.9117 160.596 58.1652 160.992 58.3509 161.479C58.5365 161.963 58.6293 162.552 58.6293 163.244V163.771H52.5589V162.658H57.1726C57.1726 162.267 57.093 161.92 56.9339 161.619C56.7749 161.314 56.5511 161.073 56.2628 160.898C55.9777 160.722 55.643 160.634 55.2585 160.634C54.8409 160.634 54.4763 160.737 54.1648 160.943C53.8565 161.145 53.6179 161.41 53.4489 161.738C53.2831 162.063 53.2003 162.416 53.2003 162.797V163.667C53.2003 164.177 53.2898 164.612 53.4688 164.97C53.651 165.327 53.9046 165.601 54.2294 165.79C54.5542 165.975 54.9337 166.068 55.3679 166.068C55.6496 166.068 55.9065 166.028 56.1385 165.949C56.3705 165.866 56.571 165.743 56.7401 165.581C56.9091 165.419 57.0384 165.218 57.1278 164.979L58.5348 165.233C58.4221 165.647 58.2199 166.01 57.9283 166.322C57.6399 166.63 57.277 166.87 56.8395 167.043C56.4053 167.212 55.9098 167.296 55.353 167.296Z" fill="white"/>
<path d="M29.5753 216.271H28.0241C27.9645 215.94 27.8535 215.648 27.6911 215.396C27.5286 215.144 27.3298 214.931 27.0945 214.755C26.8591 214.579 26.5956 214.447 26.304 214.357C26.0156 214.268 25.709 214.223 25.3842 214.223C24.7976 214.223 24.2723 214.371 23.8082 214.666C23.3475 214.961 22.983 215.393 22.7145 215.963C22.4493 216.533 22.3168 217.229 22.3168 218.051C22.3168 218.88 22.4493 219.579 22.7145 220.149C22.983 220.719 23.3492 221.15 23.8132 221.442C24.2772 221.733 24.7992 221.879 25.3793 221.879C25.7008 221.879 26.0057 221.836 26.294 221.75C26.5857 221.661 26.8492 221.53 27.0845 221.357C27.3198 221.185 27.5187 220.974 27.6811 220.726C27.8468 220.474 27.9612 220.186 28.0241 219.861L29.5753 219.866C29.4924 220.366 29.3317 220.827 29.093 221.248C28.8577 221.666 28.5545 222.027 28.1832 222.332C27.8153 222.633 27.3944 222.867 26.9205 223.033C26.4465 223.198 25.9295 223.281 25.3693 223.281C24.4877 223.281 23.7022 223.072 23.0128 222.655C22.3234 222.234 21.7798 221.632 21.3821 220.85C20.9877 220.068 20.7905 219.135 20.7905 218.051C20.7905 216.964 20.9893 216.031 21.3871 215.252C21.7848 214.47 22.3284 213.87 23.0178 213.452C23.7071 213.032 24.491 212.821 25.3693 212.821C25.9096 212.821 26.4134 212.899 26.8807 213.055C27.3513 213.207 27.7739 213.433 28.1484 213.731C28.523 214.026 28.8329 214.387 29.0781 214.815C29.3234 215.239 29.4891 215.724 29.5753 216.271ZM34.5108 223.296C33.7949 223.296 33.1702 223.132 32.6365 222.804C32.1029 222.476 31.6886 222.017 31.3936 221.427C31.0987 220.837 30.9512 220.148 30.9512 219.359C30.9512 218.567 31.0987 217.874 31.3936 217.281C31.6886 216.687 32.1029 216.227 32.6365 215.898C33.1702 215.57 33.7949 215.406 34.5108 215.406C35.2267 215.406 35.8515 215.57 36.3851 215.898C36.9187 216.227 37.333 216.687 37.628 217.281C37.923 217.874 38.0705 218.567 38.0705 219.359C38.0705 220.148 37.923 220.837 37.628 221.427C37.333 222.017 36.9187 222.476 36.3851 222.804C35.8515 223.132 35.2267 223.296 34.5108 223.296ZM34.5158 222.048C34.9798 222.048 35.3643 221.926 35.6692 221.68C35.9741 221.435 36.1995 221.109 36.3453 220.701C36.4945 220.293 36.5691 219.844 36.5691 219.354C36.5691 218.867 36.4945 218.419 36.3453 218.011C36.1995 217.6 35.9741 217.271 35.6692 217.022C35.3643 216.773 34.9798 216.649 34.5158 216.649C34.0485 216.649 33.6607 216.773 33.3525 217.022C33.0475 217.271 32.8205 217.6 32.6713 218.011C32.5255 218.419 32.4526 218.867 32.4526 219.354C32.4526 219.844 32.5255 220.293 32.6713 220.701C32.8205 221.109 33.0475 221.435 33.3525 221.68C33.6607 221.926 34.0485 222.048 34.5158 222.048ZM41.2163 218.608V223.142H39.7298V215.506H41.1566V216.749H41.2511C41.4267 216.344 41.7018 216.019 42.0763 215.774C42.4542 215.529 42.9298 215.406 43.5032 215.406C44.0236 215.406 44.4793 215.516 44.8704 215.734C45.2615 215.95 45.5647 216.271 45.7802 216.699C45.9956 217.126 46.1033 217.655 46.1033 218.285V223.142H44.6168V218.464C44.6168 217.91 44.4727 217.478 44.1843 217.166C43.896 216.851 43.4999 216.694 42.9961 216.694C42.6514 216.694 42.3448 216.769 42.0763 216.918C41.8112 217.067 41.6007 217.286 41.445 217.574C41.2925 217.859 41.2163 218.204 41.2163 218.608ZM51.7312 215.506V216.699H47.4158V215.506H51.7312ZM48.5991 223.142V214.621C48.5991 214.144 48.7035 213.747 48.9123 213.433C49.1211 213.114 49.3978 212.877 49.7425 212.722C50.0872 212.563 50.4618 212.483 50.8661 212.483C51.1644 212.483 51.4196 212.508 51.6317 212.558C51.8439 212.604 52.0013 212.647 52.104 212.687L51.756 213.89C51.6864 213.87 51.5969 213.847 51.4876 213.82C51.3782 213.791 51.2456 213.776 51.0898 213.776C50.7286 213.776 50.4701 213.865 50.3143 214.044C50.1618 214.223 50.0856 214.482 50.0856 214.82V223.142H48.5991ZM53.2649 223.142V215.506H54.7514V223.142H53.2649ZM54.0156 214.327C53.7571 214.327 53.535 214.241 53.3494 214.069C53.1671 213.893 53.076 213.684 53.076 213.443C53.076 213.197 53.1671 212.988 53.3494 212.816C53.535 212.64 53.7571 212.553 54.0156 212.553C54.2741 212.553 54.4946 212.64 54.6768 212.816C54.8625 212.988 54.9553 213.197 54.9553 213.443C54.9553 213.684 54.8625 213.893 54.6768 214.069C54.4946 214.241 54.2741 214.327 54.0156 214.327ZM59.9529 226.165C59.3464 226.165 58.8244 226.085 58.3869 225.926C57.9527 225.767 57.5981 225.557 57.323 225.295C57.0479 225.033 56.8424 224.746 56.7065 224.435L57.9842 223.908C58.0737 224.054 58.193 224.208 58.3422 224.37C58.4946 224.536 58.7001 224.677 58.9586 224.793C59.2205 224.909 59.5569 224.967 59.9679 224.967C60.5313 224.967 60.997 224.829 61.3649 224.554C61.7328 224.282 61.9167 223.848 61.9167 223.251V221.75H61.8223C61.7328 221.912 61.6035 222.093 61.4345 222.292C61.2688 222.491 61.0401 222.663 60.7484 222.809C60.4567 222.955 60.0772 223.028 59.6099 223.028C59.0067 223.028 58.4631 222.887 57.9792 222.605C57.4986 222.32 57.1175 221.901 56.8358 221.347C56.5574 220.791 56.4181 220.106 56.4181 219.294C56.4181 218.482 56.5557 217.786 56.8308 217.206C57.1092 216.626 57.4904 216.182 57.9743 215.874C58.4582 215.562 59.0067 215.406 59.6199 215.406C60.0938 215.406 60.4766 215.486 60.7683 215.645C61.06 215.801 61.287 215.983 61.4494 216.192C61.6151 216.401 61.7427 216.585 61.8322 216.744H61.9416V215.506H63.3983V223.311C63.3983 223.967 63.2458 224.506 62.9409 224.927C62.6359 225.348 62.2233 225.659 61.7029 225.862C61.1859 226.064 60.6026 226.165 59.9529 226.165ZM59.938 221.795C60.3656 221.795 60.7269 221.695 61.0218 221.496C61.3201 221.294 61.5455 221.006 61.698 220.631C61.8538 220.254 61.9316 219.801 61.9316 219.274C61.9316 218.76 61.8554 218.308 61.7029 217.917C61.5505 217.526 61.3268 217.221 61.0318 217.002C60.7368 216.78 60.3722 216.669 59.938 216.669C59.4906 216.669 59.1177 216.785 58.8194 217.017C58.5211 217.246 58.2958 217.557 58.1433 217.952C57.9941 218.346 57.9196 218.787 57.9196 219.274C57.9196 219.775 57.9958 220.214 58.1483 220.592C58.3007 220.97 58.5261 221.264 58.8244 221.477C59.126 221.689 59.4972 221.795 59.938 221.795Z" fill="white"/>
<path d="M21.1186 279.142V268.96H24.7479C25.54 268.96 26.1963 269.104 26.7166 269.393C27.237 269.681 27.6264 270.076 27.8849 270.576C28.1435 271.073 28.2727 271.633 28.2727 272.256C28.2727 272.883 28.1418 273.446 27.88 273.947C27.6214 274.444 27.2304 274.838 26.7067 275.13C26.1863 275.418 25.5317 275.563 24.7429 275.563H22.2472V274.26H24.6037C25.1042 274.26 25.5102 274.174 25.8217 274.001C26.1333 273.826 26.362 273.587 26.5078 273.286C26.6536 272.984 26.7266 272.641 26.7266 272.256C26.7266 271.872 26.6536 271.531 26.5078 271.232C26.362 270.934 26.1316 270.7 25.8168 270.531C25.5052 270.362 25.0942 270.278 24.5838 270.278H22.6548V279.142H21.1186ZM31.4409 268.96V279.142H29.9544V268.96H31.4409ZM38.2781 275.975V271.506H39.7695V279.142H38.3079V277.82H38.2283C38.0527 278.227 37.771 278.567 37.3832 278.839C36.9987 279.107 36.5198 279.242 35.9464 279.242C35.4558 279.242 35.0217 279.134 34.6438 278.918C34.2693 278.7 33.9743 278.376 33.7589 277.949C33.5468 277.521 33.4407 276.993 33.4407 276.363V271.506H34.9272V276.184C34.9272 276.704 35.0714 277.119 35.3597 277.427C35.6481 277.735 36.0226 277.889 36.4833 277.889C36.7617 277.889 37.0385 277.82 37.3136 277.68C37.592 277.541 37.8223 277.331 38.0046 277.049C38.1902 276.767 38.2814 276.409 38.2781 275.975ZM44.9686 282.165C44.362 282.165 43.84 282.085 43.4025 281.926C42.9683 281.767 42.6137 281.557 42.3386 281.295C42.0635 281.033 41.858 280.746 41.7221 280.435L42.9998 279.908C43.0893 280.054 43.2086 280.208 43.3578 280.37C43.5102 280.536 43.7157 280.677 43.9743 280.793C44.2361 280.909 44.5725 280.967 44.9835 280.967C45.5469 280.967 46.0126 280.829 46.3805 280.554C46.7484 280.282 46.9324 279.848 46.9324 279.251V277.75H46.8379C46.7484 277.912 46.6191 278.093 46.4501 278.292C46.2844 278.491 46.0557 278.663 45.764 278.809C45.4724 278.955 45.0929 279.028 44.6255 279.028C44.0223 279.028 43.4788 278.887 42.9949 278.605C42.5143 278.32 42.1331 277.901 41.8514 277.347C41.573 276.791 41.4338 276.106 41.4338 275.294C41.4338 274.482 41.5713 273.786 41.8464 273.206C42.1248 272.626 42.506 272.182 42.9899 271.874C43.4738 271.562 44.0223 271.406 44.6355 271.406C45.1094 271.406 45.4922 271.486 45.7839 271.645C46.0756 271.801 46.3026 271.983 46.465 272.192C46.6307 272.401 46.7583 272.585 46.8478 272.744H46.9572V271.506H48.4139V279.311C48.4139 279.967 48.2614 280.506 47.9565 280.927C47.6516 281.348 47.2389 281.659 46.7186 281.862C46.2015 282.064 45.6182 282.165 44.9686 282.165ZM44.9537 277.795C45.3812 277.795 45.7425 277.695 46.0375 277.496C46.3358 277.294 46.5611 277.006 46.7136 276.631C46.8694 276.254 46.9473 275.801 46.9473 275.274C46.9473 274.76 46.871 274.308 46.7186 273.917C46.5661 273.526 46.3424 273.221 46.0474 273.002C45.7524 272.78 45.3878 272.669 44.9537 272.669C44.5062 272.669 44.1333 272.785 43.835 273.017C43.5368 273.246 43.3114 273.557 43.1589 273.952C43.0098 274.346 42.9352 274.787 42.9352 275.274C42.9352 275.775 43.0114 276.214 43.1639 276.592C43.3163 276.97 43.5417 277.264 43.84 277.477C44.1416 277.689 44.5128 277.795 44.9537 277.795ZM50.4075 279.142V271.506H51.894V279.142H50.4075ZM51.1582 270.327C50.8997 270.327 50.6776 270.241 50.492 270.069C50.3097 269.893 50.2186 269.684 50.2186 269.443C50.2186 269.197 50.3097 268.988 50.492 268.816C50.6776 268.64 50.8997 268.553 51.1582 268.553C51.4167 268.553 51.6371 268.64 51.8194 268.816C52.005 268.988 52.0978 269.197 52.0978 269.443C52.0978 269.684 52.005 269.893 51.8194 270.069C51.6371 270.241 51.4167 270.327 51.1582 270.327ZM55.3803 274.608V279.142H53.8938V271.506H55.3207V272.749H55.4151C55.5908 272.344 55.8659 272.019 56.2404 271.774C56.6183 271.529 57.0939 271.406 57.6673 271.406C58.1876 271.406 58.6433 271.516 59.0344 271.734C59.4255 271.95 59.7288 272.271 59.9442 272.699C60.1597 273.126 60.2674 273.655 60.2674 274.285V279.142H58.7809V274.464C58.7809 273.91 58.6367 273.478 58.3484 273.166C58.06 272.851 57.6639 272.694 57.1602 272.694C56.8155 272.694 56.5089 272.769 56.2404 272.918C55.9753 273.067 55.7648 273.286 55.609 273.574C55.4566 273.859 55.3803 274.204 55.3803 274.608ZM67.9833 273.37L66.636 273.609C66.5797 273.436 66.4902 273.272 66.3675 273.117C66.2482 272.961 66.0858 272.833 65.8803 272.734C65.6748 272.634 65.418 272.585 65.1097 272.585C64.6888 272.585 64.3375 272.679 64.0558 272.868C63.774 273.054 63.6332 273.294 63.6332 273.589C63.6332 273.844 63.7276 274.05 63.9165 274.205C64.1055 274.361 64.4104 274.489 64.8313 274.588L66.0444 274.867C66.747 275.029 67.2707 275.279 67.6154 275.617C67.9601 275.955 68.1325 276.394 68.1325 276.935C68.1325 277.392 67.9999 277.8 67.7347 278.158C67.4729 278.512 67.1067 278.791 66.636 278.993C66.1687 279.195 65.6268 279.296 65.0103 279.296C64.1552 279.296 63.4575 279.114 62.9173 278.749C62.377 278.381 62.0456 277.859 61.9229 277.183L63.3597 276.965C63.4492 277.339 63.6332 277.622 63.9116 277.815C64.19 278.004 64.5529 278.098 65.0004 278.098C65.4876 278.098 65.877 277.997 66.1687 277.795C66.4603 277.589 66.6062 277.339 66.6062 277.044C66.6062 276.805 66.5167 276.605 66.3377 276.443C66.1621 276.28 65.8919 276.157 65.5273 276.075L64.2347 275.791C63.5221 275.629 62.9951 275.37 62.6538 275.016C62.3157 274.661 62.1467 274.212 62.1467 273.668C62.1467 273.218 62.2726 272.823 62.5245 272.485C62.7764 272.147 63.1244 271.884 63.5685 271.695C64.0127 271.502 64.5214 271.406 65.0948 271.406C65.9201 271.406 66.5697 271.585 67.0437 271.943C67.5176 272.298 67.8308 272.773 67.9833 273.37Z" fill="white"/>
<path d="M21.1186 335.142V324.96H24.7479C25.5367 324.96 26.1913 325.096 26.7116 325.368C27.2353 325.64 27.6264 326.016 27.8849 326.496C28.1435 326.974 28.2727 327.526 28.2727 328.152C28.2727 328.775 28.1418 329.324 27.88 329.798C27.6214 330.268 27.2304 330.635 26.7067 330.896C26.1863 331.158 25.5317 331.289 24.7429 331.289H21.9936V329.967H24.6037C25.1009 329.967 25.5052 329.895 25.8168 329.753C26.1316 329.61 26.362 329.403 26.5078 329.131C26.6536 328.86 26.7266 328.533 26.7266 328.152C26.7266 327.768 26.652 327.434 26.5028 327.153C26.357 326.871 26.1267 326.656 25.8118 326.506C25.5002 326.354 25.0909 326.278 24.5838 326.278H22.6548V335.142H21.1186ZM26.1449 330.548L28.6605 335.142H26.9105L24.4446 330.548H26.1449ZM33.2182 335.296C32.4658 335.296 31.8179 335.135 31.2743 334.814C30.7341 334.489 30.3165 334.033 30.0215 333.447C29.7298 332.857 29.584 332.166 29.584 331.374C29.584 330.591 29.7298 329.902 30.0215 329.305C30.3165 328.709 30.7275 328.243 31.2544 327.908C31.7847 327.574 32.4045 327.406 33.1138 327.406C33.5447 327.406 33.9623 327.478 34.3667 327.62C34.771 327.763 35.1339 327.986 35.4554 328.291C35.7769 328.596 36.0305 328.992 36.2161 329.479C36.4017 329.963 36.4945 330.552 36.4945 331.244V331.771H30.4242V330.658H35.0378C35.0378 330.267 34.9583 329.92 34.7992 329.619C34.6401 329.314 34.4164 329.073 34.128 328.898C33.843 328.722 33.5082 328.634 33.1238 328.634C32.7061 328.634 32.3416 328.737 32.03 328.943C31.7218 329.145 31.4831 329.41 31.3141 329.738C31.1484 330.063 31.0655 330.416 31.0655 330.797V331.667C31.0655 332.177 31.155 332.612 31.334 332.97C31.5163 333.327 31.7698 333.601 32.0946 333.79C32.4194 333.975 32.7989 334.068 33.2331 334.068C33.5149 334.068 33.7717 334.028 34.0037 333.949C34.2357 333.866 34.4363 333.743 34.6053 333.581C34.7743 333.419 34.9036 333.218 34.9931 332.979L36.4 333.233C36.2873 333.647 36.0852 334.01 35.7935 334.322C35.5051 334.63 35.1422 334.87 34.7047 335.043C34.2705 335.212 33.775 335.296 33.2182 335.296ZM43.8661 329.37L42.5188 329.609C42.4625 329.436 42.373 329.272 42.2504 329.117C42.131 328.961 41.9686 328.833 41.7631 328.734C41.5576 328.634 41.3008 328.585 40.9925 328.585C40.5716 328.585 40.2203 328.679 39.9386 328.868C39.6568 329.054 39.516 329.294 39.516 329.589C39.516 329.844 39.6104 330.05 39.7994 330.205C39.9883 330.361 40.2932 330.489 40.7141 330.588L41.9272 330.867C42.6299 331.029 43.1535 331.279 43.4982 331.617C43.8429 331.955 44.0153 332.394 44.0153 332.935C44.0153 333.392 43.8827 333.8 43.6175 334.158C43.3557 334.512 42.9895 334.791 42.5188 334.993C42.0515 335.195 41.5096 335.296 40.8931 335.296C40.038 335.296 39.3403 335.114 38.8001 334.749C38.2598 334.381 37.9284 333.859 37.8058 333.183L39.2425 332.965C39.332 333.339 39.516 333.622 39.7944 333.815C40.0728 334.004 40.4357 334.098 40.8832 334.098C41.3704 334.098 41.7598 333.997 42.0515 333.795C42.3432 333.589 42.489 333.339 42.489 333.044C42.489 332.805 42.3995 332.605 42.2205 332.443C42.0449 332.28 41.7747 332.157 41.4102 332.075L40.1175 331.791C39.4049 331.629 38.878 331.37 38.5366 331.016C38.1985 330.661 38.0295 330.212 38.0295 329.668C38.0295 329.218 38.1554 328.823 38.4073 328.485C38.6592 328.147 39.0072 327.884 39.4513 327.695C39.8955 327.502 40.4042 327.406 40.9776 327.406C41.8029 327.406 42.4525 327.585 42.9265 327.943C43.4005 328.298 43.7137 328.773 43.8661 329.37ZM48.8663 335.296C48.1504 335.296 47.5256 335.132 46.992 334.804C46.4584 334.476 46.0441 334.017 45.7491 333.427C45.4541 332.837 45.3066 332.148 45.3066 331.359C45.3066 330.567 45.4541 329.874 45.7491 329.281C46.0441 328.687 46.4584 328.227 46.992 327.898C47.5256 327.57 48.1504 327.406 48.8663 327.406C49.5822 327.406 50.207 327.57 50.7406 327.898C51.2742 328.227 51.6885 328.687 51.9835 329.281C52.2785 329.874 52.426 330.567 52.426 331.359C52.426 332.148 52.2785 332.837 51.9835 333.427C51.6885 334.017 51.2742 334.476 50.7406 334.804C50.207 335.132 49.5822 335.296 48.8663 335.296ZM48.8713 334.048C49.3353 334.048 49.7198 333.926 50.0247 333.68C50.3296 333.435 50.555 333.109 50.7008 332.701C50.85 332.293 50.9245 331.844 50.9245 331.354C50.9245 330.867 50.85 330.419 50.7008 330.011C50.555 329.6 50.3296 329.271 50.0247 329.022C49.7198 328.773 49.3353 328.649 48.8713 328.649C48.4039 328.649 48.0162 328.773 47.7079 329.022C47.403 329.271 47.176 329.6 47.0268 330.011C46.881 330.419 46.8081 330.867 46.8081 331.354C46.8081 331.844 46.881 332.293 47.0268 332.701C47.176 333.109 47.403 333.435 47.7079 333.68C48.0162 333.926 48.4039 334.048 48.8713 334.048ZM58.9226 331.975V327.506H60.4141V335.142H58.9524V333.82H58.8729C58.6972 334.227 58.4155 334.567 58.0277 334.839C57.6432 335.107 57.1643 335.242 56.5909 335.242C56.1004 335.242 55.6662 335.134 55.2884 334.918C54.9138 334.7 54.6188 334.376 54.4034 333.949C54.1913 333.521 54.0852 332.993 54.0852 332.363V327.506H55.5717V332.184C55.5717 332.704 55.7159 333.119 56.0043 333.427C56.2926 333.735 56.6671 333.889 57.1278 333.889C57.4063 333.889 57.683 333.82 57.9581 333.68C58.2365 333.541 58.4669 333.331 58.6491 333.049C58.8348 332.767 58.9259 332.409 58.9226 331.975ZM62.4114 335.142V327.506H63.8482V328.719H63.9277C64.0669 328.308 64.3122 327.985 64.6635 327.749C65.0182 327.511 65.4192 327.391 65.8667 327.391C65.9595 327.391 66.0688 327.395 66.1948 327.401C66.324 327.408 66.4251 327.416 66.498 327.426V328.848C66.4384 328.831 66.3323 328.813 66.1799 328.793C66.0274 328.77 65.8749 328.759 65.7225 328.759C65.3712 328.759 65.0579 328.833 64.7828 328.982C64.5111 329.128 64.2956 329.332 64.1365 329.594C63.9775 329.852 63.8979 330.147 63.8979 330.479V335.142H62.4114ZM70.7276 335.296C69.9885 335.296 69.3522 335.129 68.8185 334.794C68.2882 334.456 67.8806 333.99 67.5955 333.397C67.3105 332.804 67.168 332.124 67.168 331.359C67.168 330.583 67.3138 329.899 67.6055 329.305C67.8971 328.709 68.3081 328.243 68.8384 327.908C69.3687 327.574 69.9935 327.406 70.7127 327.406C71.2927 327.406 71.8098 327.514 72.2638 327.729C72.7179 327.942 73.0842 328.24 73.3626 328.624C73.6443 329.009 73.8117 329.458 73.8647 329.972H72.418C72.3384 329.614 72.1561 329.305 71.8711 329.047C71.5894 328.788 71.2115 328.659 70.7376 328.659C70.3233 328.659 69.9603 328.769 69.6488 328.987C69.3406 329.203 69.1003 329.511 68.9279 329.912C68.7556 330.31 68.6694 330.78 68.6694 331.324C68.6694 331.881 68.7539 332.361 68.9229 332.766C69.092 333.17 69.3306 333.483 69.6388 333.705C69.9504 333.927 70.3166 334.038 70.7376 334.038C71.0193 334.038 71.2745 333.987 71.5032 333.884C71.7352 333.778 71.9291 333.627 72.0849 333.432C72.244 333.236 72.355 333.001 72.418 332.726H73.8647C73.8117 333.22 73.6509 333.661 73.3825 334.048C73.114 334.436 72.7544 334.741 72.3036 334.963C71.8562 335.185 71.3308 335.296 70.7276 335.296ZM78.7456 335.296C77.9932 335.296 77.3452 335.135 76.8017 334.814C76.2614 334.489 75.8438 334.033 75.5488 333.447C75.2572 332.857 75.1113 332.166 75.1113 331.374C75.1113 330.591 75.2572 329.902 75.5488 329.305C75.8438 328.709 76.2548 328.243 76.7818 327.908C77.3121 327.574 77.9319 327.406 78.6412 327.406C79.072 327.406 79.4896 327.478 79.894 327.62C80.2984 327.763 80.6613 327.986 80.9828 328.291C81.3043 328.596 81.5578 328.992 81.7434 329.479C81.929 329.963 82.0218 330.552 82.0218 331.244V331.771H75.9515V330.658H80.5652C80.5652 330.267 80.4856 329.92 80.3265 329.619C80.1674 329.314 79.9437 329.073 79.6554 328.898C79.3703 328.722 79.0356 328.634 78.6511 328.634C78.2335 328.634 77.8689 328.737 77.5574 328.943C77.2491 329.145 77.0105 329.41 76.8414 329.738C76.6757 330.063 76.5929 330.416 76.5929 330.797V331.667C76.5929 332.177 76.6824 332.612 76.8613 332.97C77.0436 333.327 77.2972 333.601 77.622 333.79C77.9468 333.975 78.3263 334.068 78.7605 334.068C79.0422 334.068 79.2991 334.028 79.5311 333.949C79.7631 333.866 79.9636 333.743 80.1326 333.581C80.3017 333.419 80.4309 333.218 80.5204 332.979L81.9274 333.233C81.8147 333.647 81.6125 334.01 81.3208 334.322C81.0325 334.63 80.6696 334.87 80.2321 335.043C79.7979 335.212 79.3024 335.296 78.7456 335.296ZM89.3935 329.37L88.0462 329.609C87.9898 329.436 87.9003 329.272 87.7777 329.117C87.6584 328.961 87.496 328.833 87.2905 328.734C87.085 328.634 86.8281 328.585 86.5199 328.585C86.099 328.585 85.7476 328.679 85.4659 328.868C85.1842 329.054 85.0433 329.294 85.0433 329.589C85.0433 329.844 85.1378 330.05 85.3267 330.205C85.5156 330.361 85.8205 330.489 86.2415 330.588L87.4545 330.867C88.1572 331.029 88.6809 331.279 89.0256 331.617C89.3703 331.955 89.5426 332.394 89.5426 332.935C89.5426 333.392 89.41 333.8 89.1449 334.158C88.883 334.512 88.5168 334.791 88.0462 334.993C87.5788 335.195 87.0369 335.296 86.4205 335.296C85.5653 335.296 84.8677 335.114 84.3274 334.749C83.7872 334.381 83.4557 333.859 83.3331 333.183L84.7699 332.965C84.8594 333.339 85.0433 333.622 85.3217 333.815C85.6001 334.004 85.9631 334.098 86.4105 334.098C86.8977 334.098 87.2872 333.997 87.5788 333.795C87.8705 333.589 88.0163 333.339 88.0163 333.044C88.0163 332.805 87.9268 332.605 87.7479 332.443C87.5722 332.28 87.3021 332.157 86.9375 332.075L85.6449 331.791C84.9323 331.629 84.4053 331.37 84.0639 331.016C83.7259 330.661 83.5568 330.212 83.5568 329.668C83.5568 329.218 83.6828 328.823 83.9347 328.485C84.1866 328.147 84.5346 327.884 84.9787 327.695C85.4228 327.502 85.9316 327.406 86.505 327.406C87.3303 327.406 87.9799 327.585 88.4538 327.943C88.9278 328.298 89.241 328.773 89.3935 329.37Z" fill="white"/>
<path d="M40.18 366.849V367.369C40.1893 368.879 39.8987 370.376 39.3251 371.773C38.7514 373.17 37.9062 374.439 36.8383 375.507C35.7704 376.575 34.5012 377.42 33.1042 377.994C31.7072 378.567 30.2102 378.858 28.7 378.849C26.5021 378.855 24.3492 378.227 22.5 377.039H23.5C25.3135 377.039 27.0743 376.429 28.5 375.309C27.6549 375.301 26.834 375.026 26.1549 374.523C25.4758 374.02 24.9735 373.315 24.72 372.509C24.9746 372.549 25.2321 372.569 25.49 372.569C25.8471 372.566 26.2028 372.522 26.55 372.439C25.6465 372.254 24.8345 371.763 24.2514 371.049C23.6682 370.335 23.3498 369.441 23.35 368.519C23.9091 368.827 24.5321 369.002 25.17 369.029C24.6071 368.656 24.1459 368.15 23.8282 367.554C23.5104 366.959 23.346 366.294 23.35 365.619C23.3512 364.916 23.5375 364.226 23.89 363.619C24.9017 364.866 26.1642 365.888 27.5958 366.616C29.0273 367.345 30.5959 367.765 32.2 367.849C32.1365 367.546 32.1031 367.238 32.1 366.929C32.074 366.106 32.3026 365.294 32.7547 364.606C33.2069 363.918 33.8604 363.386 34.6262 363.083C35.3919 362.78 36.2326 362.72 37.0333 362.913C37.834 363.106 38.5557 363.541 39.1 364.159C40.005 363.977 40.8714 363.638 41.66 363.159C41.3588 364.092 40.7254 364.882 39.88 365.379C40.6837 365.292 41.4694 365.083 42.21 364.759C41.6616 365.56 40.9861 366.266 40.21 366.849H40.18Z" fill="#828282"/>
<path d="M70.5899 364.032C69.3599 363.462 68.0499 363.042 66.6699 362.802C66.4999 363.102 66.2999 363.512 66.1699 363.842C64.7099 363.622 63.2599 363.622 61.8299 363.842C61.6899 363.512 61.4899 363.102 61.3199 362.802C59.9399 363.042 58.6299 363.462 57.3999 364.032C54.9199 367.772 54.2499 371.422 54.5799 375.012C56.2299 376.242 57.8199 376.982 59.3899 377.472C59.7799 376.942 60.1199 376.372 60.4199 375.782C59.8499 375.572 59.3099 375.302 58.7999 374.992C58.9399 374.892 59.0699 374.782 59.1999 374.682C62.3299 376.142 65.7199 376.142 68.8099 374.682C68.9399 374.792 69.0699 374.892 69.2099 374.992C68.6999 375.302 68.1499 375.562 67.5899 375.782C67.8899 376.372 68.2299 376.942 68.6199 377.472C70.1899 376.982 71.7899 376.242 73.4299 375.012C73.8199 370.842 72.7599 367.232 70.6099 364.032H70.5899ZM60.8399 372.812C59.8999 372.812 59.1299 371.942 59.1299 370.872C59.1299 369.802 59.8799 368.932 60.8399 368.932C61.7999 368.932 62.5599 369.802 62.5499 370.872C62.5499 371.932 61.7999 372.812 60.8399 372.812ZM67.1499 372.812C66.2099 372.812 65.4399 371.942 65.4399 370.872C65.4399 369.802 66.1899 368.932 67.1499 368.932C68.1099 368.932 68.8699 369.802 68.8599 370.872C68.8599 371.932 68.1099 372.812 67.1499 372.812Z" fill="#828282"/>
<path d="M92.8537 375.683C92.8537 375.753 92.7837 375.803 92.6837 375.803C92.5837 375.803 92.5037 375.803 92.5037 375.683C92.5037 375.563 92.5837 375.563 92.6737 375.563C92.7637 375.563 92.8537 375.613 92.8537 375.683ZM91.8537 375.533C91.8537 375.603 91.8537 375.683 91.9937 375.703C92.0295 375.72 92.0707 375.722 92.1082 375.709C92.1457 375.696 92.1764 375.668 92.1937 375.633C92.1937 375.563 92.1937 375.493 92.0537 375.463C91.9137 375.433 91.8737 375.463 91.8537 375.533ZM93.2737 375.483C93.1837 375.483 93.1237 375.563 93.1337 375.643C93.1437 375.723 93.2237 375.753 93.3237 375.733C93.4237 375.713 93.4737 375.643 93.4637 375.573C93.4537 375.503 93.3737 375.473 93.2737 375.483ZM95.4037 362.803C94.3491 362.793 93.3033 362.996 92.3291 363.4C91.355 363.804 90.4725 364.401 89.7347 365.155C88.9969 365.909 88.419 366.804 88.0356 367.786C87.6522 368.769 87.4713 369.818 87.5037 370.873C87.4758 372.6 87.9879 374.292 88.9686 375.714C89.9493 377.135 91.3495 378.215 92.9737 378.803C93.3837 378.873 93.5337 378.613 93.5337 378.403V376.403C93.5337 376.403 91.2737 376.903 90.7937 375.403C90.7937 375.403 90.4337 374.403 89.9037 374.193C89.9037 374.193 89.1637 373.673 89.9537 373.683C90.2124 373.718 90.4594 373.813 90.6747 373.96C90.8901 374.108 91.0678 374.304 91.1937 374.533C91.2983 374.738 91.4438 374.919 91.6211 375.066C91.7984 375.213 92.0039 375.322 92.2248 375.387C92.4458 375.451 92.6777 375.47 92.9062 375.442C93.1347 375.414 93.3551 375.339 93.5537 375.223C93.5915 374.805 93.7716 374.413 94.0637 374.113C92.2637 373.903 90.4437 373.643 90.4437 370.453C90.4246 370.092 90.4825 369.732 90.6135 369.396C90.7446 369.059 90.9458 368.755 91.2037 368.503C90.9603 367.771 90.9887 366.975 91.2837 366.263C91.9637 366.043 93.5137 367.153 93.5137 367.153C94.8379 366.779 96.2395 366.779 97.5637 367.153C97.5637 367.153 99.1137 366.043 99.7937 366.263C100.095 366.974 100.124 367.772 99.8737 368.503C100.141 368.752 100.353 369.054 100.496 369.39C100.638 369.725 100.709 370.088 100.704 370.453C100.704 373.653 98.8037 373.903 97.0037 374.113C97.1846 374.316 97.3222 374.553 97.4082 374.811C97.4942 375.069 97.5267 375.342 97.5037 375.613V378.383C97.503 378.45 97.5187 378.517 97.5493 378.577C97.5799 378.637 97.6246 378.689 97.6796 378.728C97.7345 378.768 97.7981 378.793 97.865 378.803C97.9319 378.812 98 378.805 98.0637 378.783C99.6849 378.2 101.082 377.124 102.058 375.704C103.035 374.285 103.54 372.595 103.504 370.873C103.513 369.808 103.31 368.752 102.906 367.766C102.502 366.781 101.905 365.886 101.15 365.135C100.396 364.383 99.499 363.79 98.5122 363.389C97.5254 362.989 96.4686 362.789 95.4037 362.803ZM90.6437 374.213V374.383C90.6548 374.394 90.6681 374.403 90.6827 374.409C90.6973 374.415 90.7129 374.418 90.7287 374.418C90.7445 374.418 90.7601 374.415 90.7747 374.409C90.7893 374.403 90.8025 374.394 90.8137 374.383C90.8137 374.383 90.8137 374.273 90.8137 374.203C90.8137 374.133 90.6837 374.173 90.6437 374.213ZM90.2937 373.943C90.2937 373.943 90.2937 374.043 90.3637 374.073C90.3721 374.083 90.3828 374.091 90.3949 374.097C90.407 374.103 90.4203 374.106 90.4337 374.106C90.4471 374.106 90.4604 374.103 90.4725 374.097C90.4846 374.091 90.4953 374.083 90.5037 374.073C90.5037 374.073 90.5037 373.973 90.4337 373.943C90.3637 373.913 90.3137 373.913 90.2937 373.943ZM91.2937 375.123V375.333C91.2937 375.403 91.4637 375.413 91.5037 375.333C91.5437 375.253 91.5037 375.193 91.5037 375.123C91.5037 375.053 91.3737 375.073 91.3337 375.123H91.2937ZM90.9237 374.633V374.833C90.9237 374.913 91.0637 374.943 91.1137 374.913C91.139 374.884 91.153 374.846 91.153 374.808C91.153 374.769 91.139 374.732 91.1137 374.703C91.0637 374.623 90.9837 374.593 90.9237 374.633Z" fill="#828282"/>
<line x1="383" y1="119.5" x2="391" y2="119.5" stroke="#E0E0E0"/>
<line x1="381" y1="113.5" x2="391" y2="113.5" stroke="#E0E0E0"/>
<line x1="386" y1="116.5" x2="391" y2="116.5" stroke="#E0E0E0"/>
<rect x="0.5" y="0.5" width="782" height="707.284" rx="4.5" stroke="#9747FF" stroke-dasharray="10 5"/>
</svg>
