<?xml version="1.0" encoding="UTF-8" standalone="no"?>
<svg
   xmlns:dc="http://purl.org/dc/elements/1.1/"
   xmlns:cc="http://creativecommons.org/ns#"
   xmlns:rdf="http://www.w3.org/1999/02/22-rdf-syntax-ns#"
   xmlns:svg="http://www.w3.org/2000/svg"
   xmlns="http://www.w3.org/2000/svg"
   xmlns:xlink="http://www.w3.org/1999/xlink"
   xmlns:sodipodi="http://sodipodi.sourceforge.net/DTD/sodipodi-0.dtd"
   xmlns:inkscape="http://www.inkscape.org/namespaces/inkscape"
   width="320"
   height="320"
   viewBox="0 0 84.666664 84.666664"
   version="1.1"
   id="svg1275"
   inkscape:version="1.0.1 (c497b03c, 2020-09-10)"
   sodipodi:docname="logo-canonale.svg">
  <defs
     id="defs1269">
    <linearGradient
       inkscape:collect="always"
       xlink:href="#linearGradient1247"
       id="linearGradient1241"
       x1="398.32391"
       y1="100.12959"
       x2="426.55603"
       y2="153.97549"
       gradientUnits="userSpaceOnUse" />
    <linearGradient
       inkscape:collect="always"
       id="linearGradient1247">
      <stop
         style="stop-color:#bd34fe;stop-opacity:1;"
         offset="0"
         id="stop1243" />
      <stop
         style="stop-color:#47caff;stop-opacity:1"
         offset="1"
         id="stop1245" />
    </linearGradient>
    <linearGradient
       inkscape:collect="always"
       xlink:href="#linearGradient982"
       id="linearGradient1233"
       gradientUnits="userSpaceOnUse"
       gradientTransform="matrix(0.26458333,0,0,0.26458333,305.01554,-5.578943)"
       x1="344.27847"
       y1="435.41098"
       x2="391.73053"
       y2="527.98462" />
    <linearGradient
       inkscape:collect="always"
       id="linearGradient982">
      <stop
         style="stop-color:#ffe150;stop-opacity:1"
         offset="0"
         id="stop978" />
      <stop
         style="stop-color:#ffa700;stop-opacity:1"
         offset="1"
         id="stop980" />
    </linearGradient>
  </defs>
  <sodipodi:namedview
     id="base"
     pagecolor="#ffffff"
     bordercolor="#666666"
     borderopacity="1.0"
     inkscape:pageopacity="0.0"
     inkscape:pageshadow="2"
     inkscape:zoom="0.35"
     inkscape:cx="400"
     inkscape:cy="560"
     inkscape:document-units="px"
     inkscape:current-layer="layer1"
     inkscape:document-rotation="0"
     showgrid="false"
     units="px"
     inkscape:window-width="1920"
     inkscape:window-height="1027"
     inkscape:window-x="0"
     inkscape:window-y="25"
     inkscape:window-maximized="1" />
  <metadata
     id="metadata1272">
    <rdf:RDF>
      <cc:Work
         rdf:about="">
        <dc:format>image/svg+xml</dc:format>
        <dc:type
           rdf:resource="http://purl.org/dc/dcmitype/StillImage" />
        <dc:title></dc:title>
      </cc:Work>
    </rdf:RDF>
  </metadata>
  <g
     inkscape:label="Layer 1"
     inkscape:groupmode="layer"
     id="layer1">
    <g
       id="g1231"
       transform="translate(-366.13296,-85.313491)">
      <path
         style="fill:url(#linearGradient1241);fill-opacity:1;stroke:none;stroke-width:0.264583;stroke-linecap:butt;stroke-linejoin:miter;stroke-opacity:1"
         d="m 428.29274,132.83604 c 6.86349,-14.29025 -5.53564,-17.45955 -9.56767,-7.42245 l 3.47767,18.54761 c -6.2141,7.21755 -14.10316,12.9695 -22.55221,18.23147 -5.511,-1.00186 -11.16789,-4.31428 -10.11425,-11.91124 0.87703,-6.3235 -3.75581,-8.3569 -1.26724,-13.27558 l -3.79383,-1.68615 4.74229,-11.2761 -2.10769,-1.79154 1.26461,-9.48457 c -3.77553,1.25199 -9.97083,-14.407363 22.53714,-17.267103 17.42871,-0.36032 23.56295,6.194583 24.83479,17.577173 0.64443,5.76741 -2.08765,11.15553 -2.83795,18.23817 -0.64038,-0.36861 -5.33817,1.88277 -4.61566,1.52031 z"
         id="path1225"
         sodipodi:nodetypes="ccccsccccccscc" />
      <path
         id="path1227"
         style="fill:url(#linearGradient1233);fill-opacity:1;stroke:none;stroke-width:0.264583;stroke-linecap:butt;stroke-linejoin:miter;stroke-opacity:1"
         d="m 418.3032,100.18773 c -7.23015,-0.0299 -17.2643,4.86434 -29.92893,12.57959 l -1.26452,9.48469 2.10788,1.79162 -4.74234,11.27632 3.79356,1.68568 c 3.99088,1.80365 9.76,2.96545 12.88139,2.02675 10.37154,-3.11906 15.28812,-14.60042 12.83229,-19.99361 0,0 -3.81512,-5.91982 -5.65237,-9.34827 -0.43896,-0.81913 1.57156,-1.59105 2.34456,-2.0345 3.37153,-1.93416 7.9345,-4.38095 11.47165,-6.21564 l -0.11627,-0.71623 c -1.14551,-0.35664 -2.38799,-0.53087 -3.7269,-0.5364 z" />
      <path
         id="path1229"
         style="color:#000000;font-style:normal;font-variant:normal;font-weight:normal;font-stretch:normal;font-size:medium;line-height:normal;font-family:sans-serif;font-variant-ligatures:normal;font-variant-position:normal;font-variant-caps:normal;font-variant-numeric:normal;font-variant-alternates:normal;font-variant-east-asian:normal;font-feature-settings:normal;font-variation-settings:normal;text-indent:0;text-align:start;text-decoration:none;text-decoration-line:none;text-decoration-style:solid;text-decoration-color:#000000;letter-spacing:normal;word-spacing:normal;text-transform:none;writing-mode:lr-tb;direction:ltr;text-orientation:mixed;dominant-baseline:auto;baseline-shift:baseline;text-anchor:start;white-space:normal;shape-padding:0;shape-margin:0;inline-size:0;clip-rule:nonzero;display:inline;overflow:visible;visibility:visible;isolation:auto;mix-blend-mode:normal;color-interpolation:sRGB;color-interpolation-filters:linearRGB;solid-color:#000000;solid-opacity:1;vector-effect:none;fill:#505050;fill-opacity:1;fill-rule:nonzero;stroke:none;stroke-width:4.23333;stroke-linecap:butt;stroke-linejoin:miter;stroke-miterlimit:4;stroke-dasharray:none;stroke-dashoffset:0;stroke-opacity:1;color-rendering:auto;image-rendering:auto;shape-rendering:auto;text-rendering:auto;enable-background:accumulate;stop-color:#000000"
         d="m 439.58094,88.555926 -19.51718,5.397087 c -1.81715,-0.300381 -3.78388,-0.486756 -5.91745,-0.553455 l 5.58466,-3.626136 -11.53935,3.876768 c -14.82693,1.700125 -21.61985,6.186167 -24.05123,11.08511 -0.71964,1.44997 -1.01397,2.90628 -0.97928,4.24884 l -12.87208,6.11952 13.35992,-3.60133 c 0.0479,0.12503 0.0992,0.24781 0.15346,0.36794 0.43889,0.9716 1.06878,1.80209 1.94148,2.38848 0.0801,0.0538 0.19513,0.0662 0.28112,0.11524 l -0.30437,2.28255 -14.33555,7.33702 13.8467,-3.67213 -0.37258,2.79518 1.8066,1.53479 -2.16006,5.13612 -12.51191,6.50554 11.14661,-3.25819 -1.42008,3.37653 3.93362,1.74822 c -0.4531,2.20593 0.084,4.19741 0.67024,5.71851 0.093,0.24135 0.17658,0.46139 0.26614,0.69092 l -9.36016,4.51083 10.04332,-2.51096 c 0.25175,0.9864 0.35642,2.04873 0.16587,3.42253 -0.06,0.43284 -0.0943,0.85582 -0.11523,1.27279 l -18.3751,9.14105 18.70324,-5.48907 c 0.52083,2.14267 1.59258,3.94964 3.00963,5.3175 0.067,0.0647 0.13698,0.12519 0.20516,0.1881 l -12.90619,6.3159 15.69053,-4.34651 c 1.78009,0.95446 3.72703,1.53951 5.61981,1.88361 l 0.80459,0.14624 0.6935,-0.4315 c 8.53472,-5.31533 16.60811,-11.17897 23.03735,-18.6464 l 0.66405,-0.77153 1.83605,-2.67684 -2.31457,0.12506 -3.04893,-16.26103 c 1.72924,-3.77566 4.43423,-4.47535 5.73249,-3.84937 0.67853,0.32717 1.28871,0.98437 1.48206,2.58175 0.19336,1.59738 -0.17803,4.10713 -1.77299,7.42797 -0.54026,1.1248 -0.68242,1.95024 -0.97462,2.44119 -0.29224,0.49096 -0.37169,0.70694 -1.46712,0.81856 l 0.42995,4.21111 c 2.23565,-0.2278 3.89697,-1.55709 4.67569,-2.86546 0.77875,-1.30838 1.03939,-2.53614 1.15239,-2.7714 0.34613,-0.7207 0.44929,-1.32012 0.7126,-1.99988 -0.3276,3.597 -0.31959,7.49413 0.94361,12.13259 l 4.08607,-1.11311 c -0.23804,-0.8741 -0.42947,-1.7175 -0.5855,-2.53731 l 8.48527,-4.18579 -8.81237,2.09238 c -0.34875,-2.93338 -0.20897,-5.54022 0.15348,-7.98763 l 9.63301,-5.18676 -9.1395,2.46445 c 0.0516,-0.24537 0.10416,-0.49037 0.15814,-0.73381 0.97276,-4.38875 2.40789,-8.51972 2.07584,-13.13511 l 10.07173,-5.15731 -10.28414,3.27163 c -0.6863,-4.71816 -2.30619,-8.85434 -5.33921,-11.965158 l 13.67515,-7.016109 -15.73186,5.227587 c -1.3969,-1.027655 -2.99009,-1.874877 -4.78782,-2.551782 z m -27.01129,9.051645 c 2.41769,0.01347 4.55928,0.178263 6.46163,0.473355 -3.51136,-0.170082 -7.4096,0.756285 -11.70731,2.402434 -5.66338,2.16928 -12.1054,5.66598 -19.38226,10.07432 -0.083,-0.0859 -0.18405,-0.21336 -0.28165,-0.42943 -0.32983,-0.73017 -0.48625,-1.98138 0.27337,-3.51193 1.51677,-3.05607 7.25082,-7.59062 23.09783,-8.997899 0.52472,-0.01019 1.03725,-0.01365 1.53839,-0.01085 z m 14.81564,3.441129 c 0.24233,0.16434 0.47715,0.33272 0.70072,0.50695 3.327,2.59248 4.95707,6.39324 5.55625,11.75587 0.34584,3.09496 -0.51715,6.43681 -1.42936,10.25002 -0.43053,-2.485 -1.75331,-4.52846 -3.69951,-5.46685 -4.13462,-1.99359 -9.42726,0.74287 -11.75173,6.52932 l -0.23048,0.57257 3.39048,18.08572 c -5.71215,6.41918 -12.8809,11.71052 -20.65041,16.59951 -2.19279,-0.50381 -4.29329,-1.36605 -5.66995,-2.69493 -1.54045,-1.48697 -2.41911,-3.36918 -1.96887,-6.61562 0.51242,-3.69468 -0.65246,-6.381 -1.35908,-8.21448 -0.41754,-1.08338 -0.71181,-1.76446 -0.68834,-2.52801 3.97822,1.46959 8.58467,2.31049 12.17446,1.23093 5.78336,-1.73924 10.00688,-5.77821 12.46124,-10.13065 2.45435,-4.35243 3.37068,-9.0707 1.68724,-12.7677 l -0.0625,-0.14056 -0.0837,-0.12919 c 0,0 -2.92706,-4.66944 -4.82608,-7.97625 0.27292,-0.13829 0.47532,-0.24166 0.79272,-0.42375 5.28526,-3.03202 13.2643,-7.19949 15.65693,-8.4429 z m -11.87371,1.50431 c -2.07076,1.12224 -4.13353,2.25848 -5.89058,3.26646 -0.15917,0.0913 -0.95178,0.43961 -1.71876,0.9338 -0.38348,0.24709 -0.80253,0.51889 -1.22266,1.10742 -0.42013,0.58854 -0.70779,1.91018 -0.21498,2.8298 1.88815,3.52341 5.42772,8.9981 5.60174,9.26765 0.75287,1.71155 0.43643,5.398 -1.53326,8.89093 -1.98284,3.51629 -5.40399,6.77629 -9.99215,8.1561 -1.97149,0.59287 -7.79627,-0.29921 -11.40034,-1.92805 l -1.91048,-0.84956 3.15227,-7.49567 13.58625,-5.02347 -1.46865,-3.97081 -12.14861,4.49223 -0.99012,-0.84181 0.97668,-7.33082 c 7.09126,-4.28673 13.30881,-7.63154 18.50173,-9.6206 2.47714,-0.94882 4.7021,-1.57138 6.67192,-1.8836 z" />
    </g>
  </g>
</svg>
